<svg width="512" height="512" viewBox="0 0 512 512" xmlns="http://www.w3.org/2000/svg">
  <defs>
    <linearGradient id="bg" x1="0" y1="0" x2="1" y2="1">
      <stop offset="0%" stop-color="#B4F1F1"/>
      <stop offset="100%" stop-color="#0DBACC"/>
    </linearGradient>
    <linearGradient id="coin" x1="0" y1="0" x2="1" y2="1">
      <stop offset="0%" stop-color="#FFE58A"/>
      <stop offset="100%" stop-color="#F5B940"/>
    </linearGradient>
  </defs>

  <circle cx="256" cy="256" r="256" fill="url(#bg)"/>

  <!-- tai -->
  <circle cx="168" cy="146" r="44" fill="#2B2B3A"/>
  <circle cx="344" cy="146" r="44" fill="#2B2B3A"/>

  <!-- đầu -->
  <ellipse cx="256" cy="248" rx="138" ry="126" fill="#FAFAFA"/>

  <!-- vệt mắt (hình giọt nước nghiêng, đặc trưng gấu trúc) -->
  <path d="M158 200 C140 210 136 250 158 274 C182 296 214 282 214 246 C214 214 186 190 158 200Z" fill="#2B2B3A"/>
  <path d="M354 200 C372 210 376 250 354 274 C330 296 298 282 298 246 C298 214 326 190 354 200Z" fill="#2B2B3A"/>

  <!-- mắt -->
  <circle cx="182" cy="240" r="13" fill="#FAFAFA"/>
  <circle cx="330" cy="240" r="13" fill="#FAFAFA"/>
  <circle cx="185" cy="243" r="7" fill="#1A1A24"/>
  <circle cx="333" cy="243" r="7" fill="#1A1A24"/>
  <circle cx="188" cy="240" r="2.5" fill="#FAFAFA"/>
  <circle cx="336" cy="240" r="2.5" fill="#FAFAFA"/>

  <!-- má hồng -->
  <ellipse cx="176" cy="292" rx="22" ry="14" fill="#FFC2D6" opacity="0.85"/>
  <ellipse cx="336" cy="292" rx="22" ry="14" fill="#FFC2D6" opacity="0.85"/>

  <!-- mũi + miệng -->
  <ellipse cx="256" cy="288" rx="17" ry="12" fill="#2B2B3A"/>
  <path d="M256 300 L256 314" stroke="#2B2B3A" stroke-width="5" stroke-linecap="round"/>
  <path d="M256 314 Q236 332 214 320" stroke="#2B2B3A" stroke-width="5" fill="none" stroke-linecap="round"/>
  <path d="M256 314 Q276 332 298 320" stroke="#2B2B3A" stroke-width="5" fill="none" stroke-linecap="round"/>

  <!-- tay ôm đồng tiền -->
  <ellipse cx="186" cy="378" rx="34" ry="30" fill="#2B2B3A"/>
  <ellipse cx="326" cy="378" rx="34" ry="30" fill="#2B2B3A"/>
  <circle cx="256" cy="372" r="46" fill="url(#coin)" stroke="#C98A1F" stroke-width="4"/>
  <text x="256" y="389" font-family="Arial, sans-serif" font-size="44" font-weight="700" fill="#8A5A12" text-anchor="middle">$</text>
</svg>
